<?xml version="1.0" encoding="utf-8"?>
<!-- Generator: Adobe Illustrator 23.0.3, SVG Export Plug-In . SVG Version: 6.00 Build 0)  -->
<svg version="1.1" id="Layer_1" xmlns="http://www.w3.org/2000/svg" xmlns:xlink="http://www.w3.org/1999/xlink" x="0px" y="0px"
	 viewBox="0 0 548.9 588.4" style="enable-background:new 0 0 548.9 588.4;" xml:space="preserve">
<g>
	<g>
		<path d="M14.4,310.8c1.6,0.1,2.6,0.2,3.5,0.2c6.2,0.1,9,2.7,9.8,8.9c1,7.5,7.3,11,14.2,7.8c3-1.4,4.3-3.9,4.3-7.2
			c0.1-7.4,0.3-14.7,0.5-22.1c0.2-6.1,2.9-10.9,6.8-15.7c7.1-8.7,16.1-11.3,26.6-11c12.1,0.3,24.2,0.8,36.3,1.1
			c2.5,0.1,5-0.2,7.5-0.6c2.8-0.5,5.5-2.1,4.9-5c-0.4-1.9-2.9-3.6-4.8-4.9c-1-0.7-2.7-0.5-4-0.5c-2.1,0-4.2,0.1-6.4,0.1
			c-9.1,0.1-11.1-1.8-11.1-10.8c0-8.9,0-17.8,0-26.6c0-6.4,2.8-9,9.2-9.2c17.8-0.4,35,3.3,50.5,11.7c11.4,6.2,21.1,15.1,26.3,27.8
			c1.6,3.9,3.6,7.7,5.5,11.5c2.3,4.5,6.5,5.7,11,5.8c3.7,0.1,7.5-0.4,11.2-0.4c11.6,0.1,23.2,0.3,34.8,0.5
			c8.3,0.1,10.8-2.3,10.8-10.5c0-4.9,0-9.8,0-14.6c-0.1-5.9-2.8-9.8-8.1-12.8c-8.6-4.8-16.7-10.4-25-15.7c-5.4-3.5-11-6.9-16-10.9
			c-16.6-13.1-25.7-30.3-25.8-51.7c-0.1-26.6-0.1-53.2-0.1-79.9c0-7.9-1.5-9.8-9.2-11.7c-5.7-1.5-9.3-5.1-9.4-10.9
			c0-9.5-0.2-19.1,1.3-28.4c1-6.5,5.3-12.2,11.6-15.2c8.8-4.2,18.1-6.5,27.9-7.8c31.4-4.3,62.9-1.4,94.3-1.9
			c31.5-0.6,63-0.3,94.5,0.1c4.2,0.1,8.7,2.3,12.3,4.7c5.8,3.8,11.4,8.1,16,13.2c2.6,3,3.9,7.9,4.1,12.1c0.6,9.1,0.3,18.2,0.2,27.4
			c0,5.2-2,7.2-7.1,7.9c-0.1,0-0.2,0-0.4,0c-8.8,0.3-11.4,0.2-11.3,13c0.2,24.2,0.1,48.5,0,72.7c0,6.1,0.1,12.4-1.3,18.3
			c-3.7,14.8-10.9,28-23.4,37.3c-9.2,6.9-19.2,12.9-28.9,19.2c-5.2,3.4-10.6,6.5-15.9,9.9c-4,2.5-5.3,6.5-5.4,10.9
			c-0.1,5.8-0.1,11.5,0,17.2c0.1,5,2.4,7.7,7.5,8c3.5,0.2,7-0.3,10.5-0.3c6.1,0.1,12.2,0.2,18.3,0.5c4.6,0.2,8.4-1.1,10.7-5.4
			c1.8-3.3,4.7-4.5,8.4-4.5c18.9,0.1,37.8,0.3,56.6,0.2c9.4,0,16,4.3,21.4,11.6c4.5,6.2,11.2,9.3,18.5,10.2c8.5,1,17.2,0.9,25.8,1.2
			c4.2,0.1,8.7-1.2,12.4,0.1c7.5,2.5,14.2,7,18.2,14.2c2.9,5.1,4.5,10.9,3.7,16.8c-0.7,5.2-2.7,8.7-8.3,8.5
			c-5.2-0.2-10.4,0.3-15.6,1.2c-3.1,0.5-6.2,1.8-8.9,3.5c-6.5,4-7,10.6-6.1,17.2c0.7,5.3,2.3,10.5,3.8,15.6c0.9,3.3,3.3,5.6,6.7,6.5
			c5,1.3,9.7,3.5,15.3,1.7c4.3-1.4,8.2,1.2,11.5,4c0.3,0.2,0.6,0.6,0.6,0.9c-0.3,5.5,1.8,11.2-2.1,16.3c-2.2,2.9-3.9,6.2-6.2,8.9
			c-4.8,5.5-11.1,8.3-18.5,8.8c-10.6,0.6-21.2,1.2-31.7,1.8c-3.2,0.2-6.5,0.5-9.7,0.5c-6.8,0.1-11.4,3.5-14.1,9.4
			c-3.1,6.9-8.6,9.6-15.8,9.9c-1.2,0-2.5,0.1-3.8,0.1c-17.5,0.1-35,0.1-52.5,0.2c-4.1,0-7.7-0.6-9.9-4.6c-2.2-4.1-5.9-5.4-10.4-5.3
			c-30,0.2-60,0.4-90,0.5c-4.2,0-8.5-0.1-12.7-0.7c-6.2-0.9-8.4-5.9-5.4-11.4c2.8-5.1,7.6-6.7,12.9-7c4-0.2,8,0,12,0
			c23.8,0,47.5,0,71.2,0c4.1,0,8.2,0.4,12.3,0.5c4.2,0.1,7.7-1.3,10.7-4.4c1.7-1.8,4.1-3.5,6.4-4.1c5.9-1.5,10.5,1.7,10.9,7.7
			c0.5,8.4,4.3,10.4,12.4,10.2c9.5-0.3,19-0.1,28.5-0.2c2.7,0,5.5-0.5,8.1-1.1c3.3-0.7,5.7-2.7,6.6-6c1.8-6.7,5.8-10.7,12.8-12.6
			c6.9-1.9,11-8.1,15.1-13.6c9.5-12.6,12.6-27.1,9.8-42.6c-2.5-14-10.3-25-21.1-34c-1.9-1.6-4.7-2.4-7.2-3.1c-4.1-1.2-6.5-3.7-8-7.7
			c-3.1-8.6-5.8-10.5-15-10.6c-10.9-0.2-21.8-0.2-32.6-0.2c-6,0-8.4,2.2-9.1,8.2c-0.5,4.2-1.5,8-6.1,9.4s-8.4,0-11.4-3.6
			c-3.1-3.7-7.1-4.8-11.7-4.8c-58.9,0.2-117.7,0.3-176.6,0.5c-3.6,0-7.2,0.2-10.9,0.1c-5.5-0.2-8.1-2.9-8.4-8.5
			c-1.2-20.5-12.1-33.9-30.7-41.5c-3.9-1.6-7.7-3.7-11.7-5c-2.5-0.9-5.4-1.5-7.9-1c-1.5,0.3-3.5,2.6-3.7,4.3c-0.2,1.4,1.8,3.1,3,4.5
			c0.3,0.4,1.2,0.6,1.7,0.6c10-0.4,13.8,8.1,19.1,14c4,4.4,2.6,16-1.5,20.5c-2.6,2.9-5.2,5.9-8.3,8.1c-2.4,1.7-5.6,3.2-8.5,3.3
			c-13.3,0.5-26.7,0.4-40.1,0.6c-4.6,0.1-9.2,0-13.8,0.4c-6.1,0.5-9.1,3.8-9.6,10c-0.1,1.5-0.1,3-0.1,4.5c0,21.2,0,42.5,0,63.7
			c0,1.6,0,3.3,0.2,4.9c0.6,6,3.5,9,9.5,9.8c3.3,0.4,6.8,1,10.1,0.7c13.4-1.4,28.3,13.3,26.9,28.3c-0.6,6.3-1.5,12.4-5.6,17.5
			c-0.9,1.2-1.5,2.6-2.2,3.9c-2.7,5.2-5.3,10.4-8,15.6c-0.2,0.3-0.5,0.6-0.5,1c-3.2,12.1-10.3,22.7-12.4,35.2
			c-2,11.7-5.3,23.2-6.7,34.9c-1.5,12.6-1.7,25.4-2,38.1c-0.2,8.3,3.8,12.1,12.2,12.3c7.9,0.2,15.7,0.1,23.6,0.1c15,0,30,0.1,45,0
			c9.9-0.1,12.8-3.2,12.8-13.2c0-20.2-0.3-40.5,0.2-60.7c0.3-11.7,1.1-23.5,3-35c1.6-9.4,4-19.1,8.1-27.6c4.5-9.3,10-18.2,19.4-24.2
			c6.7-4.3,13.5-7.1,21.5-7.8c9.7-0.8,11.8-3.9,13.2-13.6c1-7.3,3.2-14.4,4.3-21.6c0.5-3.2-0.1-6.5-0.7-9.8c-0.3-2-1.7-3.9-2.3-5.9
			c-2.6-8.8,1.3-15.3,7.9-20.5c5.1-4,11-4.8,16.5-1.8c9.7,5.5,14.5,13.5,10.5,23.5c-0.6,1.6-1.7,3.1-2.9,4.3
			c-7.9,7.7-12.4,16.8-14,27.8c-1.4,9.3-4.3,18.5-6.5,27.7c-0.3,1.5-0.9,2.9-1.2,4.3c-4.1,19.7-8.1,39.3-12.4,59
			c-1.4,6.5-3.6,12.8-5,19.2c-1.4,6.8-2.9,13.7-3.2,20.7c-0.5,10.4,4.7,16,14.9,17.7c1.7,0.3,3.5,0.6,5.1,1c4.8,1.2,7.5,4.7,7.2,9.1
			c-0.3,4.7-3.5,7.9-8.5,8.5c-13.5,1.6-23.2-5-31.5-14.7c-4.6-5.4-6.3-11.7-6.3-18.7c0.1-12.2,2-24.1,6-35.7
			c0.8-2.3,1.6-4.8,1.9-7.2c1.8-14.5,5.6-28.4,10-42.2c0.2-0.5,0.3-1,0.4-1.5c0.8-3.3,1-6.6-2.1-8.9c-3.2-2.4-6.8-1.6-9.4,0.5
			c-7.3,5.9-14.4,12.1-16.8,21.9c-0.9,3.6-2.1,7.2-3.4,10.7c-3.7,10-4.2,20.5-4.5,31c-0.5,22.1-0.8,44.2-0.8,66.3
			c0,12-6,20.7-14.1,28.3c-5.3,4.9-12.7,5.1-19.5,5.2c-16.9,0.4-33.7,0.1-50.6,0.1c-5.6,0-11.3,0.4-16.9,0c-5.3-0.4-11-0.6-15.8-2.7
			c-7-3-12.8-8.5-13.5-16.6c-0.8-9.8-0.6-19.7-0.6-29.5c-0.1-21.5,5.5-42,9.9-62.8c0.7-3.5,2.4-6.8,3.7-10.2
			c1.6-4.3,3.1-8.7,4.9-12.9c1.5-3.5,3.1-7,4.8-10.5c1.2-2.5,2.6-4.8,3.9-7.2c2.1-4.1,4.3-8.2,6.4-12.2c0.8-1.4,1.6-2.8,2.2-4.3
			c3.5-10,0.2-15.1-10.2-15.7c-0.8,0-1.5-0.1-2.2-0.1c-12.8,1.3-21.7-5.2-28.9-14.7c-4.1-5.3-3.7-11.8-4.1-18
			c-0.3-4.9,0-9.8-0.1-14.6c0-5.4-1.8-8.2-5.9-9.2c-5.8-1.4-10.5,0.5-12.7,5.2c-1,2.1-1.6,4.5-2.8,6.6c-1,1.7-2.2,3.5-3.9,4.3
			c-3.5,1.7-6,0.5-7.3-3.3c-0.8-2.2-1.3-4.6-1.3-6.9c0.1-11.3,0.3-22.7,0.6-34C13.1,316,13.9,313.5,14.4,310.8z M299.5,18.7
			c-31,0-62,0-93,0c-3,0-6,0-9,0.3c-6.7,0.7-9.8,4-10.4,10.6c-0.2,3.1-0.2,6.2-0.1,9.4c0.1,5.1,2.4,7.5,7.5,8
			c1.7,0.2,3.5,0.1,5.2,0.1c1.9,0,3.8-0.1,5.6,0.1c3.9,0.3,7,1.9,8.5,5.7c1.4,3.9,0.4,7.4-2.6,10.2c-3.1,2.9-5.5,6-5.5,10.6
			c0.1,27.6-0.1,55.2,0.2,82.9c0,5.1,0.8,10.7,2.8,15.3c5.1,11.5,13,20.9,24.3,27.1c6.5,3.6,12.6,8,18.9,12
			c7,4.5,13.9,9.3,21.2,13.3c5.3,2.9,7.7,6.7,7.6,12.6c-0.1,8.8-0.1,17.5,0,26.2c0,6.1,2.5,8.8,8.6,8.9c6.7,0.2,13.5,0.2,20.2,0
			c6.2-0.2,8.6-2.9,8.7-9.2c0-8.4,0.2-16.8,0-25.1c-0.2-6.5,2-11.2,8.3-13.6c1.3-0.5,2.4-1.3,3.6-2.1c12.1-7.7,24-15.6,36.2-23.2
			c17.4-10.9,27.5-25.8,27.1-47.1c-0.4-25.4-0.2-50.8,0-76.1c0-4.9-1.3-8.8-5-11.9c-3.5-3-4.8-6.8-3-11.1c1.8-4.3,5.5-5.5,9.8-5.5
			c3.2,0,6.5,0.1,9.7-0.1c4.3-0.4,6.8-2.6,7-6.4c0.2-3.9,0.3-7.8-0.1-11.6c-0.6-6.1-3.3-8.8-9.5-9.8c-3.2-0.5-6.5-0.5-9.7-0.5
			C361.5,18.6,330.5,18.7,299.5,18.7z M515.7,299.1c-2.5,0.5-6,0.9-9.3,1.8c-2.4,0.6-3.8,2.2-3.7,5c0.2,5.4,6.8,11.5,12.1,10.4
			c4.5-0.9,8.8-2.7,13-4.6c2.7-1.2,4.1-3.7,3.5-6.8c-0.5-3.1-3-4.2-5.6-4.7C522.7,299.6,519.7,299.5,515.7,299.1z M515.3,394.5
			c4.1-0.3,6.8-0.5,9.6-0.8c3-0.4,5.7-1.3,6.4-4.8c0.7-3.7-1.3-6-4.4-7.4c-2.9-1.3-6.1-2.4-9.1-3.4c-6.4-2.1-12.7,1.2-14.7,7.8
			c-1,3.4-0.1,5.8,3.3,6.8C509.6,393.7,513.1,394.1,515.3,394.5z"/>
		<path d="M393.2,319.4c5.3,0,8.8,3.3,8.8,8.6c0,5.2-3.4,8.7-8.7,8.8c-5.4,0.1-9.1-3.5-9-8.8C384.5,322.7,387.9,319.4,393.2,319.4z"
			/>
		<path d="M393.2,356.9c5.3,0,8.8,3.3,8.8,8.6c0,5.2-3.4,8.7-8.7,8.8c-5.4,0.1-9.1-3.5-9-8.8C384.5,360.2,387.9,356.9,393.2,356.9z"
			/>
		<path d="M476.6,328.4c0,5.3-2.9,8.2-8,8.3c-5.5,0.1-9.1-3.4-9.1-8.7c0-5.2,3.4-8.7,8.7-8.6C473.3,319.5,476.6,323,476.6,328.4z"/>
		<path d="M468.1,356.9c5.4,0,8.4,2.9,8.4,8.2c0,5.4-3.3,9-8.4,9c-5.3,0-8.8-3.4-8.8-8.6C459.4,360.4,462.8,356.9,468.1,356.9z"/>
		<path d="M243.2,47.4c5.3,0,8.9,3.6,8.8,8.9c-0.1,5-3.8,8.7-8.8,8.7s-8.8-3.7-8.8-8.7C234.3,51,237.9,47.4,243.2,47.4z"/>
		<path d="M280.6,47.4c5.3-0.1,9,3.5,9,8.8c0,5-3.7,8.8-8.7,8.8c-5,0.1-8.8-3.6-9-8.5C271.8,51.2,275.3,47.4,280.6,47.4z"/>
		<path d="M327.1,56.2c0,5-3.7,8.8-8.7,8.8c-5.1,0.1-9-3.8-9-8.9c0-5.2,3.5-8.6,8.7-8.7C323.4,47.3,327.1,50.9,327.1,56.2z"/>
		<path d="M355.4,65c-4.9-0.1-8.6-4-8.5-9c0.1-5.3,3.8-8.8,9.1-8.6c5.3,0.2,8.8,3.9,8.5,9.2C364.3,61.6,360.4,65.2,355.4,65z"/>
	</g>
</g>
</svg>
